<svg xmlns="http://www.w3.org/2000/svg" viewBox="0 0 179.3 286.58"><defs><style>.cls-1{mix-blend-mode:multiply}.cls-3{fill:#3c2517}.cls-3,.cls-4,.cls-5,.cls-6,.cls-7,.cls-8{stroke-width:0}.cls-4{fill:#dedc5f}.cls-5{fill:#d0c541}.cls-6{fill:#c6c275}.cls-7{fill:#fff}.cls-8{fill:#eee992}</style></defs><g style="isolation:isolate"><g id="Layer_2" data-name="Layer 2"><g id="Layer_1-2" data-name="Layer 1"><path d="M87.18 98.15c0-13.77.09-27.99 4.75-41.12 4.92-13.89 15.18-24.54 27.55-32.21 7.42-4.59 15.61-8.27 24.27-9.65 1.58-.25.91-2.66-.66-2.41-7.88 1.25-15.42 4.43-22.31 8.37s-13.29 8.67-18.63 14.42c-4.87 5.24-8.77 11.26-11.51 17.88s-4.05 12.96-4.87 19.7c-1.02 8.29-1.09 16.67-1.09 25.02 0 1.61 2.5 1.61 2.5 0Z" class="cls-3"/><path d="M99.35 211.94s-16.95-3.79-28.22 10.78-5.5 44.39 7.01 55.94c12.51 11.55 29.66 7.71 38.84-8.35 9.18-16.06 10.94-54.07-17.63-58.38Z" class="cls-5"/><g class="cls-1"><path d="M99.35 211.94s-16.95-3.79-28.22 10.78c-1.4 1.81-2.54 3.86-3.43 6.08 9.7-5.46 19.59-3.26 19.59-3.26 27.49 4.14 26.9 39.47 18.64 56.45 4.24-2.53 8.07-6.45 11.05-11.67 9.18-16.06 10.94-54.07-17.63-58.38Z" class="cls-6"/></g><path d="M99.68 210.74c-3.99-.88-8.39-.6-12.35.26-8.03 1.74-15.34 6.97-19.32 14.2s-4.65 15.35-3.97 23.15 3 16.33 7.13 23.41 10.03 12.42 17.8 14.23 16.17-.91 22.19-6.34c10.04-9.07 13.58-23.94 13.01-37.03-.28-6.41-1.65-12.92-4.83-18.54s-8.23-9.92-14.37-12.05c-1.72-.6-3.5-1.01-5.3-1.29-1.57-.24-2.25 2.16-.66 2.41 6.26.97 11.95 3.82 15.93 8.83 3.64 4.58 5.52 10.37 6.32 16.09.84 6.03.53 12.26-.66 18.22-1.11 5.55-2.97 10.97-6.14 15.7-4.38 6.54-11.33 11.76-19.42 12.09-7.51.3-14.41-3.7-18.97-9.49s-7.34-13.33-8.74-20.63-1.54-15.39.77-22.65 8.08-13.66 15.39-16.55c2.88-1.14 5.95-1.8 9.04-1.97 1.17-.06 2.35-.07 3.53 0 .43.02.86.06 1.28.1l.51.06c.37.04-.02 0 .3.04.28.04.57.09.85.15 1.57.35 2.24-2.06.66-2.41Z" class="cls-3"/><path d="M94.03 258.37c0 5.28-4.28 9.55-9.56 9.55s-9.56-4.28-9.56-9.55 4.28-9.56 9.56-9.56 9.56 4.28 9.56 9.56Z" class="cls-4"/><circle cx="80.82" cy="261.77" r="4.49" class="cls-8"/><path d="M113.46 236.25a29.69 29.69 0 0 1 1.36 5.88c.15 1.21 2.08 1.23 1.92 0-.28-2.18-.72-4.31-1.43-6.4-.4-1.17-2.26-.67-1.86.51ZM103.47 225.48c2.07.7 3.86 1.92 5.43 3.43.89.86 2.26-.5 1.36-1.36-1.81-1.75-3.88-3.11-6.28-3.92-1.18-.4-1.68 1.46-.51 1.86Z" class="cls-7"/><path d="M52.56 123.37s-13.31-11.15-30.02-3.39-25.28 36.9-19.48 52.91c5.8 16.01 22.8 20.48 38.34 10.43 15.54-10.05 34.57-43 11.17-59.95Z" class="cls-5"/><g class="cls-1"><path d="M52.56 123.37s-13.31-11.15-30.02-3.39c-2.08.96-4.03 2.26-5.84 3.82 11.12-.39 18.9 6.11 18.9 6.11 22.51 16.31 5.76 47.41-9.38 58.7 4.93-.3 10.13-2.02 15.18-5.29 15.54-10.05 34.57-43 11.17-59.95Z" class="cls-6"/></g><path d="M53.44 122.48c-3.34-2.78-7.66-4.65-11.85-5.66-8.04-1.94-16.99-.43-23.73 4.47-5.85 4.25-10.05 10.51-12.91 17.07-2.99 6.9-4.78 14.41-4.94 21.95-.15 7.09 1.33 14.33 5.65 20.1 4.55 6.09 11.62 9.56 19.22 9.5 14.95-.12 26.91-11.88 33.74-24.17 3.46-6.22 5.93-13.21 6.14-20.37s-2.21-14.01-7.12-19.22c-1.35-1.43-2.86-2.69-4.45-3.86-1.3-.95-2.55 1.22-1.26 2.16 5.55 4.07 9.41 10 10.17 16.91.71 6.46-.88 13.02-3.52 18.9-5.29 11.78-15.1 23.46-28.18 26.49-6.82 1.58-14.23.32-19.58-4.37s-7.69-11.11-8.2-17.8.6-13.79 2.74-20.29 5.44-12.83 10.25-17.74a26.694 26.694 0 0 1 20.34-8.02c5.39.25 10.78 2.19 15.18 5.33.12.08.6.44.46.34-.18-.13.04.03.09.08 1.23 1.02 3.01-.74 1.77-1.77Z" class="cls-3"/><path d="M26.51 162.16a9.562 9.562 0 0 1-12.88 4.1 9.562 9.562 0 0 1-4.1-12.88 9.562 9.562 0 0 1 12.88-4.1 9.562 9.562 0 0 1 4.1 12.88Z" class="cls-4"/><path d="M17.2 161.17a4.49 4.49 0 0 1-7.97-4.13 4.502 4.502 0 0 1 6.05-1.93 4.49 4.49 0 0 1 1.92 6.05Z" class="cls-8"/><path d="M53.93 151.44c-.3 2-.8 3.96-1.49 5.85-.42 1.15 1.28 2.05 1.71.88.76-2.06 1.34-4.16 1.67-6.34.18-1.22-1.7-1.63-1.88-.4ZM50 137.29c1.52 1.58 2.55 3.47 3.25 5.54.4 1.18 2.23.6 1.83-.58-.81-2.38-2.02-4.55-3.77-6.37-.86-.9-2.16.52-1.31 1.41Z" class="cls-7"/><path d="M118.24 105.39s10.34-13.95 28.4-10.3c18.06 3.64 33.2 29.98 31.29 46.89-1.9 16.92-17.39 25.24-34.84 19.1-17.45-6.14-43.65-33.74-24.85-55.69Z" class="cls-5"/><g class="cls-1"><path d="M118.24 105.39s10.34-13.95 28.4-10.3c2.24.45 4.44 1.26 6.57 2.35-10.9 2.22-16.95 10.35-16.95 10.35-18.08 21.12 5.47 47.45 22.83 54.88-4.86.86-10.32.4-16-1.6-17.45-6.14-43.65-33.74-24.85-55.69Z" class="cls-6"/></g><path d="M119.32 106.02c-.31.42.18-.21.33-.4.43-.5.88-.98 1.34-1.44 1.6-1.61 3.38-3.02 5.3-4.23 6.01-3.76 13.19-5.09 20.15-3.63s12.48 5.83 16.99 10.88c4.9 5.47 8.7 12.06 11.06 19.01 2.17 6.39 3.22 13.31 1.36 19.91s-6.39 11.77-12.68 14.15c-13.42 5.08-27.59-2.55-37.05-11.84s-17.47-24.12-10.36-37.29a28.45 28.45 0 0 1 3.35-4.87c1.03-1.22-.73-3-1.77-1.77-5.06 5.98-7.66 13.38-6.62 21.22s4.82 14.32 9.58 20.08c9.21 11.13 23.62 20.55 38.65 18.16 7.06-1.12 13.41-5.27 16.95-11.53s4.05-13.98 2.58-21.09c-1.57-7.61-5.02-14.93-9.55-21.23s-10.01-11.65-16.97-14.64c-11.75-5.05-26.01-1.23-34.19 8.47-.22.26-.44.53-.64.81-.96 1.29 1.21 2.54 2.16 1.26Z" class="cls-3"/><path d="M152.63 137.03c3.45 3.99 9.49 4.43 13.48.98 3.99-3.45 4.43-9.49.98-13.48-3.45-3.99-9.49-4.43-13.48-.98-3.99 3.45-4.43 9.49-.98 13.48Z" class="cls-4"/><path d="M161.45 133.89a4.484 4.484 0 0 0 6.33.46 4.493 4.493 0 0 0 .46-6.33 4.484 4.484 0 0 0-6.33-.46 4.484 4.484 0 0 0-.46 6.33Z" class="cls-8"/><path d="M123.46 133.01c.76 1.88 1.7 3.66 2.82 5.34.68 1.02-.77 2.29-1.46 1.26-1.22-1.83-2.28-3.73-3.1-5.78-.46-1.15 1.27-1.98 1.74-.83ZM123.98 118.33c-1.11 1.89-1.66 3.97-1.86 6.14-.11 1.23-2.03 1.1-1.92-.14.23-2.51.9-4.89 2.18-7.07.63-1.07 2.23 0 1.6 1.07Z" class="cls-7"/><path d="M113.85 149.08s10.34-13.95 28.4-10.3c18.06 3.65 33.2 29.98 31.29 46.9-1.9 16.92-17.39 25.24-34.84 19.1-17.45-6.14-43.65-33.74-24.85-55.69Z" class="cls-5"/><g class="cls-1"><path d="M113.85 149.08s10.34-13.95 28.4-10.3c2.24.45 4.44 1.26 6.57 2.35-10.9 2.22-16.95 10.35-16.95 10.35-18.08 21.12 5.47 47.45 22.83 54.89-4.86.86-10.32.4-16-1.6-17.45-6.14-43.65-33.74-24.85-55.69Z" class="cls-6"/></g><path d="M114.93 149.71c-.31.42.18-.21.33-.4.43-.5.88-.98 1.34-1.44 1.6-1.61 3.38-3.02 5.3-4.23 6.01-3.76 13.19-5.09 20.15-3.63s12.48 5.83 16.99 10.88c4.9 5.47 8.7 12.06 11.06 19.01 2.17 6.39 3.22 13.31 1.36 19.91s-6.39 11.77-12.68 14.15c-13.42 5.08-27.59-2.55-37.05-11.84s-17.47-24.12-10.36-37.29a28.45 28.45 0 0 1 3.35-4.87c1.03-1.22-.73-3-1.77-1.77-5.06 5.98-7.66 13.38-6.62 21.22s4.82 14.32 9.58 20.08c9.21 11.13 23.62 20.55 38.65 18.16 7.06-1.12 13.41-5.27 16.95-11.53s4.05-13.98 2.58-21.09c-1.57-7.61-5.02-14.93-9.55-21.23s-10.01-11.65-16.97-14.64c-11.75-5.05-26.01-1.23-34.19 8.47-.22.26-.44.53-.64.81-.96 1.29 1.21 2.54 2.16 1.26Z" class="cls-3"/><path d="M148.24 180.72c3.45 3.99 9.49 4.43 13.48.98 3.99-3.45 4.43-9.49.98-13.48-3.45-3.99-9.49-4.43-13.48-.98-3.99 3.45-4.43 9.49-.98 13.48Z" class="cls-4"/><path d="M157.06 177.59a4.484 4.484 0 0 0 6.33.46 4.484 4.484 0 0 0 .46-6.33 4.484 4.484 0 0 0-6.33-.46 4.484 4.484 0 0 0-.46 6.33Z" class="cls-8"/><path d="M119.07 176.7c.76 1.88 1.7 3.66 2.82 5.34.68 1.02-.77 2.29-1.46 1.26-1.22-1.83-2.28-3.73-3.1-5.78-.46-1.14 1.27-1.98 1.74-.83ZM119.59 162.02c-1.11 1.89-1.66 3.97-1.86 6.14-.11 1.23-2.03 1.1-1.92-.14.23-2.51.9-4.9 2.18-7.07.63-1.07 2.23 0 1.6 1.07Z" class="cls-7"/><path d="M97.44 188.1s10.34-13.95 28.4-10.3c18.06 3.64 33.2 29.97 31.29 46.89-1.9 16.92-17.39 25.24-34.84 19.1-17.45-6.14-43.65-33.74-24.85-55.69Z" class="cls-5"/><g class="cls-1"><path d="M97.44 188.1s10.34-13.95 28.4-10.3c2.24.45 4.44 1.26 6.57 2.35-10.9 2.22-16.95 10.35-16.95 10.35-18.08 21.12 5.47 47.45 22.83 54.89-4.86.86-10.32.4-16-1.6-17.45-6.14-43.65-33.74-24.85-55.69Z" class="cls-6"/></g><path d="M98.52 188.74c-.31.42.18-.21.33-.4.43-.5.88-.98 1.34-1.44 1.6-1.61 3.38-3.02 5.3-4.23 6.01-3.76 13.19-5.09 20.15-3.63s12.48 5.83 16.99 10.88c4.9 5.47 8.7 12.06 11.06 19.01 2.17 6.39 3.22 13.31 1.36 19.91s-6.39 11.77-12.68 14.15c-13.42 5.08-27.59-2.55-37.05-11.84s-17.47-24.12-10.36-37.29a28.45 28.45 0 0 1 3.35-4.87c1.03-1.22-.73-3-1.77-1.77-5.06 5.98-7.66 13.38-6.62 21.22s4.82 14.32 9.58 20.08c9.21 11.13 23.62 20.55 38.65 18.16 7.06-1.12 13.41-5.27 16.95-11.53s4.05-13.98 2.58-21.09c-1.57-7.61-5.02-14.93-9.55-21.23s-10.01-11.65-16.97-14.64c-11.75-5.05-26.01-1.23-34.19 8.47-.22.26-.44.53-.64.81-.96 1.29 1.21 2.54 2.16 1.26Z" class="cls-3"/><path d="M131.83 219.74c3.45 3.99 9.49 4.43 13.48.98 3.99-3.45 4.43-9.49.98-13.48-3.45-3.99-9.49-4.43-13.48-.98-3.99 3.45-4.43 9.49-.98 13.48Z" class="cls-4"/><path d="M140.66 216.61a4.484 4.484 0 0 0 6.33.46 4.493 4.493 0 0 0 .46-6.33 4.484 4.484 0 0 0-6.33-.46 4.484 4.484 0 0 0-.46 6.33Z" class="cls-8"/><path d="M102.67 215.72c.76 1.88 1.7 3.66 2.82 5.34.68 1.02-.77 2.29-1.46 1.26-1.22-1.83-2.28-3.73-3.1-5.78-.46-1.14 1.27-1.98 1.74-.83ZM103.18 201.04c-1.11 1.89-1.66 3.97-1.86 6.14-.11 1.24-2.03 1.1-1.92-.14.23-2.51.9-4.89 2.18-7.07.63-1.07 2.23 0 1.6 1.07Z" class="cls-7"/><path d="M59.04 166.52s17.3 1.46 23.7 18.73c6.4 17.28-8.04 44-23.43 51.28-15.39 7.28-30.61-1.52-34.57-19.59-3.96-18.08 5.74-54.87 34.29-50.43Z" class="cls-5"/><g class="cls-1"><path d="M59.04 166.52s17.3 1.46 23.7 18.73c.79 2.15 1.27 4.44 1.46 6.82-7.62-8.11-17.72-8.97-17.72-8.97-27.47-4.27-37.48 29.61-34.68 48.28-3.29-3.68-5.77-8.57-7.06-14.45-3.96-18.08 5.74-54.87 34.29-50.43Z" class="cls-6"/></g><path d="M59.04 167.77c.06 0 .13.01.19.02.37.04-.22-.05.29.04.68.12 1.36.24 2.03.4 2.18.52 4.3 1.27 6.31 2.26 6.41 3.16 11.38 8.62 13.78 15.38 2.56 7.22 1.36 15.27-1.11 22.34-2.67 7.67-7.08 14.94-12.84 20.68-5.29 5.26-12.13 9.15-19.79 8.95s-13.97-4.61-17.85-10.86c-6.79-10.94-5.82-25.29-1.79-37.04s12.4-22.16 25.36-22.53c1.7-.05 3.4.06 5.08.31 1.57.24 2.25-2.17.66-2.41-6.88-1.04-13.85.08-19.64 4.07-5.41 3.72-9.34 9.24-12.01 15.17s-4.33 12.64-4.88 19.28.04 13.31 2.57 19.48c3.06 7.47 8.86 13.9 16.8 16.16s16.13-.05 22.51-4.76c6.81-5.02 12.07-12.17 15.7-19.76s5.95-16.09 4.85-24.45c-1.68-12.87-12.48-23.18-25.18-25.1-.35-.05-.7-.11-1.06-.14-1.6-.14-1.59 2.36 0 2.5Z" class="cls-3"/><path d="M50.21 212.41a9.554 9.554 0 0 0 6.26 11.98 9.554 9.554 0 0 0 11.98-6.26 9.554 9.554 0 0 0-6.26-11.98 9.554 9.554 0 0 0-11.98 6.26Z" class="cls-4"/><path d="M57.52 218.26c-.74 2.37.57 4.88 2.94 5.62 2.37.74 4.88-.57 5.63-2.94.74-2.37-.57-4.88-2.94-5.62-2.37-.74-4.88.57-5.62 2.94Z" class="cls-8"/><path d="M38.29 185.49c-1.2 1.63-2.22 3.37-3.06 5.21-.51 1.11-2.35.55-1.84-.58.92-2 1.98-3.9 3.28-5.68.73-1 2.35.04 1.62 1.04ZM51.05 178.21c-2.19.05-4.25.68-6.2 1.65-1.11.55-2-1.15-.89-1.7 2.25-1.12 4.64-1.81 7.16-1.86 1.24-.03 1.17 1.89-.07 1.92Z" class="cls-7"/><path d="M64.04 66.6s-16.95-3.79-28.22 10.78-5.5 44.39 7.01 55.94c12.51 11.55 29.66 7.71 38.84-8.35 9.18-16.06 10.94-54.07-17.63-58.38Z" class="cls-5"/><g class="cls-1"><path d="M64.04 66.6s-16.95-3.79-28.22 10.78c-1.4 1.81-2.54 3.86-3.43 6.08 9.7-5.46 19.59-3.26 19.59-3.26 27.49 4.14 26.9 39.47 18.64 56.45 4.24-2.53 8.07-6.45 11.05-11.67 9.18-16.06 10.94-54.07-17.63-58.38Z" class="cls-6"/></g><path d="M64.37 65.4c-3.99-.88-8.39-.6-12.35.26-8.03 1.74-15.34 6.97-19.32 14.2s-4.65 15.35-3.97 23.15 3 16.33 7.13 23.41 10.03 12.42 17.8 14.23 16.17-.91 22.19-6.34c10.04-9.07 13.58-23.94 13.01-37.03-.28-6.41-1.65-12.92-4.83-18.54s-8.23-9.92-14.37-12.05c-1.72-.6-3.5-1.01-5.3-1.29-1.57-.24-2.25 2.16-.66 2.41 6.26.97 11.95 3.82 15.93 8.83 3.64 4.58 5.52 10.37 6.32 16.09.84 6.03.53 12.26-.66 18.22-1.11 5.55-2.97 10.97-6.14 15.7-4.38 6.54-11.33 11.77-19.42 12.09-7.51.3-14.41-3.7-18.97-9.49s-7.34-13.33-8.74-20.63-1.54-15.39.77-22.65 8.08-13.66 15.39-16.55c2.88-1.14 5.95-1.8 9.04-1.97 1.17-.06 2.35-.07 3.53 0 .43.02.86.06 1.28.1l.51.06c.37.04-.02 0 .3.04.28.04.57.09.85.15 1.57.35 2.24-2.06.66-2.41Z" class="cls-3"/><path d="M58.72 113.03c0 5.28-4.28 9.56-9.56 9.56s-9.56-4.28-9.56-9.56 4.28-9.56 9.56-9.56 9.56 4.28 9.56 9.56Z" class="cls-4"/><path d="M50 116.43a4.49 4.49 0 1 1-8.98 0 4.49 4.49 0 0 1 8.98 0Z" class="cls-8"/><path d="M78.15 90.91c.65 1.92 1.11 3.88 1.36 5.89.15 1.21 2.08 1.23 1.92 0-.28-2.18-.72-4.31-1.43-6.4-.4-1.17-2.26-.67-1.86.51ZM68.16 80.15c2.07.7 3.86 1.92 5.43 3.43.89.86 2.26-.5 1.36-1.36-1.81-1.74-3.88-3.11-6.28-3.92-1.18-.4-1.68 1.46-.51 1.86Z" class="cls-7"/><path d="M96.72 123.39S83.41 112.24 66.7 120s-25.28 36.89-19.48 52.9c5.8 16.01 22.8 20.48 38.34 10.44 15.54-10.05 34.57-43 11.17-59.95Z" class="cls-5"/><g class="cls-1"><path d="M96.72 123.39S83.41 112.24 66.7 120c-2.08.96-4.03 2.26-5.84 3.82 11.12-.39 18.9 6.11 18.9 6.11 22.51 16.31 5.76 47.41-9.38 58.7 4.93-.3 10.13-2.02 15.18-5.29 15.54-10.05 34.57-43 11.17-59.95Z" class="cls-6"/></g><path d="M97.61 122.51c-3.34-2.78-7.66-4.65-11.85-5.66-8.04-1.94-16.99-.43-23.73 4.47-5.85 4.25-10.05 10.5-12.91 17.07-3 6.9-4.8 14.41-4.95 21.95-.15 7.09 1.33 14.33 5.65 20.1 4.55 6.09 11.62 9.56 19.22 9.5 14.95-.12 26.91-11.88 33.74-24.17 3.46-6.22 5.93-13.21 6.14-20.37s-2.21-14.01-7.12-19.22c-1.35-1.43-2.86-2.7-4.45-3.86-1.3-.95-2.55 1.22-1.26 2.16 5.55 4.07 9.41 10 10.17 16.91.71 6.46-.88 13.02-3.52 18.9-5.29 11.78-15.1 23.46-28.18 26.49-6.82 1.58-14.23.32-19.58-4.37s-7.69-11.11-8.2-17.8.6-13.79 2.74-20.29 5.44-12.83 10.25-17.74a26.694 26.694 0 0 1 20.34-8.02c5.39.25 10.78 2.19 15.18 5.32.12.08.6.44.46.34-.18-.13.04.03.09.08 1.23 1.02 3.01-.74 1.77-1.77Z" class="cls-3"/><path d="M70.67 162.19a9.562 9.562 0 0 1-12.88 4.1 9.562 9.562 0 0 1-4.1-12.88c2.43-4.69 8.19-6.52 12.88-4.1s6.52 8.19 4.1 12.88Z" class="cls-4"/><path d="M61.36 161.2a4.49 4.49 0 0 1-7.97-4.13 4.49 4.49 0 0 1 7.97 4.13Z" class="cls-8"/><path d="M98.09 151.47c-.3 2-.8 3.96-1.49 5.86-.42 1.15 1.28 2.05 1.71.88.76-2.07 1.34-4.16 1.67-6.34.18-1.22-1.7-1.63-1.88-.4ZM94.16 137.31c1.52 1.58 2.54 3.47 3.25 5.54.4 1.18 2.23.59 1.83-.58-.81-2.38-2.02-4.55-3.77-6.37-.86-.89-2.16.53-1.31 1.41Z" class="cls-7"/><path d="M114.34 66.6s-16.95-3.79-28.22 10.78-5.5 44.39 7.01 55.94c12.51 11.55 29.66 7.71 38.84-8.35 9.18-16.06 10.94-54.07-17.63-58.38Z" class="cls-5"/><g class="cls-1"><path d="M114.34 66.6s-16.95-3.79-28.22 10.78c-1.4 1.81-2.54 3.86-3.43 6.08 9.7-5.46 19.59-3.26 19.59-3.26 27.49 4.14 26.9 39.47 18.64 56.45 4.24-2.53 8.07-6.45 11.05-11.67 9.18-16.06 10.94-54.07-17.63-58.38Z" class="cls-6"/></g><path d="M114.67 65.4c-3.99-.88-8.39-.6-12.35.26-8.03 1.74-15.34 6.97-19.32 14.2s-4.65 15.35-3.97 23.15 3 16.33 7.13 23.41 10.03 12.42 17.8 14.23 16.17-.91 22.19-6.34c10.04-9.07 13.58-23.94 13.01-37.03-.28-6.41-1.65-12.92-4.83-18.54s-8.23-9.92-14.37-12.05c-1.72-.6-3.5-1.01-5.3-1.29-1.57-.24-2.25 2.16-.66 2.41 6.26.97 11.95 3.82 15.93 8.83 3.64 4.58 5.52 10.37 6.32 16.09.84 6.03.53 12.26-.66 18.22-1.11 5.55-2.97 10.97-6.14 15.7-4.38 6.54-11.33 11.77-19.42 12.09-7.51.3-14.41-3.7-18.97-9.49s-7.34-13.33-8.74-20.63-1.54-15.39.77-22.65 8.08-13.66 15.39-16.55c2.88-1.14 5.95-1.8 9.04-1.97 1.17-.06 2.35-.07 3.53 0 .43.02.86.06 1.28.1l.51.06c.37.04-.02 0 .3.04.28.04.57.09.85.15 1.57.35 2.24-2.06.66-2.41Z" class="cls-3"/><path d="M109.03 113.03c0 5.28-4.28 9.56-9.56 9.56s-9.56-4.28-9.56-9.56 4.28-9.56 9.56-9.56 9.56 4.28 9.56 9.56Z" class="cls-4"/><path d="M100.3 116.43a4.49 4.49 0 1 1-8.98 0 4.49 4.49 0 0 1 8.98 0Z" class="cls-8"/><path d="M128.46 90.91c.65 1.92 1.11 3.88 1.36 5.89.15 1.21 2.08 1.23 1.92 0-.28-2.18-.72-4.31-1.43-6.4-.4-1.17-2.26-.67-1.86.51ZM118.46 80.15c2.07.7 3.86 1.92 5.43 3.43.89.86 2.26-.5 1.36-1.36-1.81-1.74-3.88-3.11-6.28-3.92-1.18-.4-1.68 1.46-.51 1.86Z" class="cls-7"/><path d="M123.11 122.65s-16.95-3.79-28.22 10.78-5.5 44.39 7.01 55.94c12.51 11.55 29.66 7.71 38.84-8.35 9.18-16.06 10.94-54.07-17.63-58.38Z" class="cls-5"/><g class="cls-1"><path d="M123.11 122.65s-16.95-3.79-28.22 10.78c-1.4 1.81-2.54 3.86-3.43 6.07 9.7-5.46 19.59-3.25 19.59-3.25 27.49 4.14 26.9 39.46 18.64 56.45 4.24-2.53 8.07-6.45 11.05-11.67 9.18-16.06 10.94-54.07-17.63-58.38Z" class="cls-6"/></g><path d="M123.44 121.45c-3.95-.87-8.3-.6-12.21.23-8.04 1.71-15.37 6.9-19.39 14.12s-4.71 15.41-4.03 23.25c.72 8.22 3.04 16.51 7.26 23.64 3.97 6.73 10.16 12.38 17.97 14.08s16.06-1.09 22.01-6.53c9.95-9.09 13.45-23.87 12.88-36.92-.28-6.41-1.65-12.92-4.83-18.54s-8.23-9.92-14.37-12.05c-1.72-.6-3.5-1.01-5.3-1.29-1.57-.24-2.25 2.16-.66 2.41 6.22.97 11.87 3.78 15.86 8.73 3.69 4.58 5.59 10.43 6.4 16.19s.54 12.18-.63 18.1c-1.11 5.6-2.98 11.06-6.17 15.82-4.32 6.45-11.15 11.64-19.12 12.08s-14.66-3.61-19.28-9.5-7.28-13.2-8.69-20.43-1.59-15.58.77-22.92 8.09-13.58 15.36-16.45c4.54-1.8 10.28-2.46 14.7-1.76.27.04.54.08.81.14 1.57.35 2.24-2.06.66-2.41Z" class="cls-3"/><path d="M117.8 169.08c0 5.28-4.28 9.56-9.56 9.56s-9.56-4.28-9.56-9.56 4.28-9.56 9.56-9.56 9.56 4.28 9.56 9.56Z" class="cls-4"/><path d="M109.07 172.48a4.49 4.49 0 1 1-8.98 0 4.49 4.49 0 0 1 8.98 0Z" class="cls-8"/><path d="M137.23 146.96c.65 1.92 1.11 3.88 1.36 5.89.15 1.21 2.08 1.23 1.92 0-.28-2.18-.72-4.31-1.43-6.4-.4-1.17-2.26-.67-1.86.51ZM127.23 136.19c2.08.7 3.86 1.92 5.43 3.43.89.86 2.26-.5 1.36-1.36-1.81-1.75-3.88-3.12-6.28-3.92-1.18-.4-1.68 1.46-.51 1.86Z" class="cls-7"/><path d="M92.98 169.52s-16.95-3.79-28.22 10.78-5.5 44.39 7.01 55.94c12.51 11.55 29.66 7.72 38.84-8.35 9.18-16.06 10.94-54.07-17.63-58.38Z" class="cls-5"/><g class="cls-1"><path d="M92.98 169.52s-16.95-3.79-28.22 10.78c-1.4 1.81-2.54 3.86-3.43 6.08 9.7-5.46 19.59-3.26 19.59-3.26 27.49 4.14 26.9 39.47 18.64 56.45 4.24-2.53 8.07-6.45 11.05-11.67 9.18-16.06 10.94-54.07-17.63-58.38Z" class="cls-6"/></g><path d="M93.31 168.32c-3.95-.87-8.3-.6-12.21.23-8.04 1.71-15.37 6.9-19.39 14.12s-4.71 15.41-4.03 23.25c.72 8.22 3.04 16.51 7.26 23.64 3.97 6.73 10.16 12.38 17.97 14.08s16.06-1.09 22.01-6.52c9.95-9.09 13.45-23.87 12.88-36.92-.28-6.41-1.65-12.92-4.83-18.54s-8.23-9.92-14.37-12.05c-1.72-.6-3.5-1.01-5.3-1.29-1.57-.24-2.25 2.16-.66 2.41 6.22.97 11.87 3.78 15.86 8.73 3.69 4.58 5.59 10.43 6.4 16.19s.54 12.18-.63 18.1c-1.11 5.6-2.98 11.06-6.17 15.82-4.32 6.45-11.15 11.64-19.12 12.08s-14.66-3.61-19.28-9.5-7.28-13.2-8.69-20.43-1.59-15.58.77-22.92c2.39-7.42 8.09-13.57 15.36-16.45 4.54-1.8 10.28-2.46 14.7-1.76.27.04.54.08.81.14 1.57.35 2.24-2.06.66-2.41Z" class="cls-3"/><circle cx="78.11" cy="215.95" r="9.56" class="cls-4"/><path d="M78.94 219.35a4.49 4.49 0 1 1-8.98 0 4.49 4.49 0 0 1 8.98 0Z" class="cls-8"/><path d="M107.09 193.83a29.69 29.69 0 0 1 1.36 5.88c.15 1.21 2.08 1.23 1.92 0-.28-2.18-.72-4.31-1.43-6.4-.4-1.17-2.26-.67-1.86.51ZM97.1 183.06c2.07.7 3.86 1.92 5.43 3.43.89.86 2.26-.5 1.36-1.36-1.81-1.75-3.88-3.11-6.28-3.92-1.18-.4-1.68 1.46-.51 1.86Z" class="cls-7"/><path d="M90.46 51.86s-16.62 14.88-41.59 2.18l11.24-9.05s-19.26.58-27.72-15.21l8.85.96s-8.28-3.46-8.85-29.26c0 0 19.96-2.89 32.21 11.36l4.49-9.05s13.58 5.2 10.87 24.45l8.06-14.44s13.15 15.08 2.44 38.05" class="cls-6"/><path d="M90.01 51.42c-1.93 1.72-4.37 3.01-6.72 4.06-5.9 2.65-12.48 3.55-18.89 2.81-5.32-.62-10.45-2.39-15.22-4.79l.13.98 11.24-9.05c.43-.35.07-1.08-.44-1.07-7.07.2-14.8-2.35-20.33-6.71-2.83-2.23-5.13-5.02-6.86-8.19l-.54.94 8.85.96c.6.07.88-.93.32-1.16-1.06-.45-1.94-1.55-2.64-2.52-2.57-3.58-3.78-8.07-4.59-12.34-.87-4.57-1.2-9.22-1.31-13.86l-.46.6c-.23.03.28-.03.42-.05.5-.05 1-.09 1.5-.11 1.74-.09 3.48-.07 5.21.04 5.39.36 10.77 1.68 15.56 4.22 3.39 1.8 6.39 4.2 8.91 7.1.25.29.81.22.98-.13 1.5-3.02 2.99-6.03 4.49-9.05l-.71.29s.01-.04.22.1c.29.19.64.32.94.49 1.05.59 2.04 1.31 2.94 2.11 3.07 2.72 5.1 6.37 6.02 10.34.81 3.48.78 7.11.3 10.64-.09.65.77 1.16 1.14.48 2.69-4.81 5.37-9.62 8.06-14.44l-.98.13c1.47 1.69 2.69 4.01 3.62 6.12 2.37 5.37 3.23 11.34 2.67 17.17-.46 4.86-1.91 9.57-3.95 13.99-.33.73.74 1.36 1.08.63 5.35-11.62 6.13-25.46-.93-36.56-.49-.77-1.01-1.55-1.61-2.24-.26-.3-.8-.21-.98.13-2.69 4.81-5.37 9.62-8.06 14.44l1.14.48c.78-5.75.41-11.77-2.45-16.94-1.64-2.98-4.06-5.56-6.98-7.32-.6-.36-1.22-.7-1.88-.96-.24-.09-.59.06-.71.29-1.5 3.02-2.99 6.03-4.49 9.05l.98-.13C57.59 3.85 46.1.21 34.98.66c-.92.04-1.85.1-2.76.23-.26.04-.46.35-.46.6.17 7.15.78 14.6 3.3 21.36 1.02 2.75 2.42 5.68 4.7 7.63.35.3.74.63 1.17.81l.32-1.16-8.85-.96c-.5-.05-.75.56-.54.94 5.15 9.44 15.19 14.52 25.65 15.41.87.07 1.75.13 2.62.11l-.44-1.07-11.24 9.05c-.31.25-.21.81.13.98 7.77 3.91 16.44 6.05 25.15 4.89 5.19-.69 10.28-2.48 14.68-5.32.87-.56 1.74-1.16 2.51-1.85.6-.54-.28-1.42-.88-.88Z" class="cls-3"/><g class="cls-1"><path d="m46.91 13.13-8.06-7.01c-.6-.53-1.49.35-.88.88 2.68 2.34 5.37 4.67 8.06 7.01.6.53 1.49-.35.88-.88Z" class="cls-3"/></g><g class="cls-1"><path d="M64.2 28.18c-3.5-3.05-7.01-6.1-10.52-9.15-.6-.53-1.49.35-.88.88 3.51 3.05 7.01 6.1 10.52 9.15.6.53 1.49-.35.88-.88Z" class="cls-3"/></g><g class="cls-1"><path d="M90.9 51.42c-6.47-5.63-12.94-11.27-19.41-16.9-.6-.53-1.49.35-.88.88 6.47 5.63 12.94 11.27 19.41 16.9.6.53 1.49-.35.88-.88Z" class="cls-3"/></g><g class="cls-1"><path d="M32.38 29.79c.03.05.06.11.09.16.24-.02.48-.05.72-.07l-.81-.09ZM88.01 13.81l-8.06 14.44C82.67 9 69.08 3.8 69.08 3.8l-4.49 9.05C52.35-1.39 32.38 1.49 32.38 1.49c.41 18.15 4.62 25.24 7.09 27.85 18.28-1.35 40.39-1.12 55.18 5.26.19-12.96-6.64-20.79-6.64-20.79Z" class="cls-6"/></g><path d="M89.57 50.98c-.15.13-.31.26-.46.38-.2.16.01-.01-.02.02-.1.07-.2.15-.3.22-.26.19-.52.38-.79.56-1.58 1.08-3.28 2-5.02 2.79-5.8 2.6-12.28 3.45-18.58 2.72-5.21-.61-10.24-2.35-14.9-4.7l.25 1.96 11.24-9.05c.86-.69.13-2.16-.88-2.13-6.91.19-14.47-2.28-19.89-6.53-2.8-2.19-5.06-4.94-6.76-8.06l-1.08 1.88 8.85.96c1.2.13 1.76-1.85.63-2.33a1.39 1.39 0 0 1-.21-.11c-.15-.1-.69-.49-.37-.24-.71-.58-1.44-1.4-1.83-1.95-2.53-3.56-3.73-7.95-4.53-12.19-.86-4.51-1.18-9.11-1.29-13.69l-.92 1.21c-.53.08.01 0 .25-.02.5-.05 1-.09 1.5-.11 1.74-.09 3.48-.07 5.21.04 5.27.35 10.56 1.65 15.24 4.13 3.35 1.78 6.29 4.14 8.79 7 .51.58 1.62.44 1.96-.25 1.5-3.02 2.99-6.03 4.49-9.05l-1.41.57c.08.03-.32-.16.07.03.32.16.63.31.94.49 1.03.58 1.95 1.24 2.81 2.01 2.99 2.65 4.96 6.19 5.86 10.07.78 3.37.77 6.9.3 10.31-.18 1.29 1.53 2.31 2.28.96 2.69-4.81 5.37-9.62 8.06-14.44l-1.96.25c.1.11.4.5.17.2.3.39.59.8.86 1.22.96 1.45 1.79 2.99 2.49 4.59 2.33 5.27 3.13 11.14 2.59 16.86-.45 4.74-1.88 9.36-3.86 13.67-.67 1.45 1.49 2.72 2.16 1.26 5.45-11.82 6.26-25.9-.93-37.19-.52-.82-1.08-1.64-1.71-2.37-.53-.61-1.59-.41-1.96.25-2.69 4.81-5.37 9.62-8.06 14.44l2.28.96c.81-5.93.43-12.09-2.51-17.42-1.69-3.07-4.2-5.73-7.2-7.55-.65-.39-1.32-.75-2.03-1.02-.48-.19-1.18.12-1.41.57-1.5 3.02-2.99 6.03-4.49 9.05l1.96-.25C57.93 3.3 46.25-.42 34.98.04c-.98.04-1.96.11-2.93.25-.52.07-.93.71-.92 1.21.18 7.2.78 14.72 3.32 21.53 1.06 2.85 2.5 5.89 4.86 7.9.38.33.82.7 1.29.91l.63-2.33-8.85-.96c-.99-.11-1.49 1.13-1.08 1.88 5.26 9.65 15.51 14.81 26.19 15.72.87.07 1.75.13 2.62.11l-.88-2.13-11.24 9.05c-.61.49-.41 1.63.25 1.96 7.87 3.96 16.64 6.13 25.47 4.97 5.3-.7 10.5-2.5 15-5.41.91-.59 1.83-1.22 2.64-1.94 1.2-1.07-.57-2.84-1.77-1.77Z" class="cls-3"/><path d="M91.61 48.61c.03 2.92.7 5.81 2.5 8.16 1.63 2.13 3.93 3.54 6.43 4.44 2.76 1 5.75 1.35 8.67 1.47s6.12.26 9.16-.06 5.84-1.03 8.24-2.75 4.05-4.19 4.96-6.96 1.51-5.94.77-8.7c-.68-2.55-2.91-4.21-5.2-5.28s-5.32-1.98-7.82-.86c-2.67 1.2-3.95 4.33-4.41 7.05-.51 3.07.06 6.05 2.12 8.44 2.2 2.54 5.46 4.14 8.6 5.17 3.63 1.19 7.53 1.67 11.34 1.41 1.85-.13 3.7-.42 5.49-.92 1.96-.55 3.78-1.45 5.67-2.2 3.61-1.44 7.44-2.68 11.38-2.27 3.72.38 7.32 2.28 10 4.85 4.63 4.44 5.73 10.98 4.85 17.12-.76 5.31-2.77 11.99-8.02 14.49-1.26.6-2.55.8-3.93.8-1.61 0-1.61 2.5 0 2.5 12.04 0 15.82-16.02 14.45-25.54-.85-5.88-4.17-10.83-9.23-13.94-3.15-1.94-6.82-3.02-10.53-2.84s-7.12 1.38-10.46 2.76c-3.52 1.45-6.83 2.61-10.68 2.74-3.61.12-7.23-.46-10.63-1.71-2.74-1.01-5.87-2.71-7.33-5.36-1.35-2.43-.89-5.78.37-8.17 1.34-2.53 3.5-2.73 6.04-1.93 2.08.66 4.81 1.96 5.49 4.22.75 2.48-.05 5.7-.93 8.05-.96 2.54-2.77 4.64-5.19 5.86s-5.41 1.56-8.18 1.63-5.7.01-8.51-.25c-4.84-.45-10.53-2.14-12.31-7.21-.48-1.37-.65-2.78-.67-4.22-.02-1.61-2.52-1.61-2.5 0Z" class="cls-3"/></g></g></g></svg>