<svg xmlns="http://www.w3.org/2000/svg" viewBox="0 0 270.11 211.29"><defs><style>.cls-1{fill:#c42033;mix-blend-mode:multiply}.cls-1,.cls-3,.cls-4,.cls-6,.cls-7,.cls-8,.cls-9{stroke-width:0}.cls-3{fill:#588946}.cls-4{fill:#3c2517}.cls-6{fill:#df1f26}.cls-7{fill:#8eca75}.cls-8{fill:#f48379}.cls-9{fill:#e6e7e7}</style></defs><g style="isolation:isolate"><g id="Layer_2" data-name="Layer 2"><g id="Layer_1-2" data-name="Layer 1"><path d="M58.07 73.82 29.66 49.11l-4.67 3.98 22.24 30.47 10.84-9.74z" class="cls-3"/><path d="M58.95 72.93 34.1 51.32c-1.19-1.03-2.37-2.06-3.56-3.09-.54-.47-1.22-.46-1.77 0l-4.67 3.98c-.38.33-.5 1.1-.2 1.51 6.49 8.9 12.98 17.79 19.47 26.69l2.76 3.78c.49.67 1.32.83 1.96.25 3.61-3.25 7.23-6.5 10.84-9.74 1.2-1.08-.57-2.84-1.77-1.77-3.61 3.25-7.23 6.5-10.84 9.74l1.96.25c-6.49-8.9-12.98-17.79-19.47-26.69l-2.76-3.78-.2 1.51 4.67-3.98h-1.77L53.6 71.59c1.19 1.03 2.37 2.06 3.56 3.09s2.98-.71 1.77-1.77Z" class="cls-4"/><path d="M53.13 75.05s1.51-17.71-3.43-28.82c-4.94-11.12-8.1-17.16-7.14-20.59.96-3.43 12.35.82 19.49 11.53 7.14 10.71 5.21 27.86-1.37 37.06-6.59 9.2-7.55.82-7.55.82Z" class="cls-7"/><path d="M54.38 75.05c.56-6.69.27-13.62-.9-20.22-.42-2.4-1-4.78-1.83-7.08-.99-2.73-2.31-5.36-3.5-8.01-1.03-2.28-2.07-4.56-2.97-6.89-.61-1.57-1.25-3.23-1.48-4.91-.06-.48-.09-1.13-.03-1.53.02-.12.18-.67.1-.44.07-.19.02-.07-.01 0 .04-.07-.04-.07.18-.13-.21.06.34-.09.42-.1h.57c.67.03 1.32.21 1.96.41 4.08 1.29 7.71 4.21 10.6 7.28 3.65 3.87 6.13 8.39 7.19 13.61s.84 10.32-.28 15.31-3.31 10.83-7.38 14.19c-.46.38-1.19.78-1.49.75-.24-.02-.44-.28-.64-.65s-.29-.67-.42-1.19c-.05-.2-.16-.98-.09-.4-.19-1.58-2.69-1.6-2.5 0 .22 1.87 1.03 4.24 3.12 4.67 1.96.41 3.76-1.24 4.95-2.57 1.78-1.98 3.22-4.27 4.34-6.68 4.53-9.79 5.16-22.51-.08-32.16-2.65-4.88-6.86-9.17-11.55-12.13-2.46-1.55-6.86-4.08-9.87-2.56-2.8 1.41-1.43 5.85-.68 8.08 1.87 5.54 4.79 10.65 6.91 16.09s2.85 11.81 3.04 17.8c.1 3.15.1 6.33-.17 9.47-.14 1.6 2.37 1.59 2.5 0Z" class="cls-4"/><path d="M59.51 56.93c.03 2.2-.15 4.4-.53 6.57-.06.33.09.67.44.77.3.08.71-.1.77-.44.41-2.28.61-4.58.58-6.9-.01-.8-1.26-.81-1.25 0ZM51.04 35c3.98 4.34 6.52 9.86 7.76 15.59.17.79 1.37.45 1.21-.33-1.28-5.94-3.95-11.64-8.08-16.14-.55-.59-1.43.29-.88.88Z" class="cls-4"/><path d="M56.99 77.01s12.46-12.66 15.76-24.38c3.29-11.71 4.72-18.37 7.65-20.4 2.93-2.03 8.98 8.52 7.64 21.32-1.34 12.8-13.77 24.77-24.72 27.65-10.94 2.87-6.34-4.19-6.34-4.19Z" class="cls-7"/><path d="M57.87 77.89c4.86-4.95 9.25-10.69 12.6-16.76 2.71-4.91 4.03-10.17 5.52-15.53.64-2.3 1.28-4.62 2.06-6.88.51-1.49 1.08-3.03 1.98-4.33.28-.4.61-.81 1.01-1.1.12-.09.18-.11.4 0 1.07.57 1.88 1.88 2.48 2.98 2.46 4.5 3.23 9.98 3.03 15.05-.42 10.64-7.7 20.07-16.58 25.44-2.22 1.34-4.58 2.45-7.08 3.15-1.61.45-4.29 1.28-5.81.42 0 0-.09-.07-.15-.17.08.13-.06-.37-.05-.14-.01-.58 0-.51.16-1.09.14-.47.12-.36.37-.85.07-.15.16-.29.25-.43.88-1.35-1.29-2.61-2.16-1.26s-1.47 3.09-.93 4.6c1.35 3.76 7.66 1.82 10.2.97 10.39-3.47 19.65-12.7 23.01-23.15 1.83-5.69 1.66-12.09.17-17.84-.6-2.3-1.43-4.61-2.68-6.64-.81-1.33-1.91-2.82-3.43-3.38-3.12-1.15-5 3-5.91 5.25-2.15 5.29-3.27 10.98-4.89 16.44-1.75 5.89-5.28 11.24-8.99 16.08-1.97 2.58-4.07 5.1-6.35 7.41-1.13 1.15.64 2.92 1.77 1.77Z" class="cls-4"/><path d="M73.51 67.09c-1.42 1.76-3 3.37-4.72 4.83-.26.22-.22.66 0 .88.26.26.63.22.88 0 1.72-1.46 3.31-3.07 4.72-4.83.21-.26.26-.63 0-.88-.22-.22-.67-.26-.88 0ZM80.94 44.79c.29 5.88-1.24 11.75-3.95 16.95-.37.71.71 1.35 1.08.63 2.81-5.39 4.42-11.48 4.12-17.58-.04-.8-1.29-.81-1.25 0Z" class="cls-4"/><path d="M50.12 80.64s-17.51-3.03-27.01-10.62C13.61 62.42 8.57 57.84 5 57.9c-3.56.06-2.33 12.16 6.21 21.77 8.55 9.62 25.63 12.11 36.2 8.06 10.57-4.04 2.71-7.09 2.71-7.09Z" class="cls-7"/><path d="M50.45 79.43c-7.35-1.28-14.88-3.58-21.46-7.1-5.38-2.88-9.83-7.22-14.65-10.92-2.53-1.94-6.01-4.99-9.46-4.76-3.71.25-3.11 5.76-2.66 8.18 1.03 5.55 3.93 10.8 7.55 15.07 6.95 8.22 18.75 11.59 29.22 10.85 2.78-.2 5.58-.68 8.21-1.61 2.28-.81 5.34-1.91 6.58-4.18 1.41-2.57-1.17-4.68-3.33-5.53-1.5-.59-2.15 1.83-.66 2.41-.38-.15.06.03.29.15.34.17.79.46.94.58.31.25.56.57.6.66.09.18.06.28.07.21-.04.25-.13.38-.29.59-.54.72-1.47 1.18-2.24 1.57-1.24.64-2.55 1.13-3.89 1.53-2.15.64-4.37 1-6.61 1.14-9.38.58-19.98-2.21-26.45-9.36-3.52-3.89-6.24-8.76-7.4-13.9-.36-1.57-.64-3.32-.29-4.92.09-.43.22-.74.44-.94-.08.07-.06-.03.15-.03-.2 0 .41.05.48.06 1.38.21 2.66 1.01 3.82 1.75 1.87 1.2 3.63 2.58 5.37 3.97 4.3 3.42 8.37 7.19 13.26 9.76 6.7 3.53 14.3 5.89 21.76 7.19 1.57.27 2.25-2.14.66-2.41Z" class="cls-4"/><path d="M30.65 83.43c2.23.62 4.51 1.01 6.82 1.19.34.03.62-.31.62-.62 0-.36-.29-.6-.62-.62a35.04 35.04 0 0 1-6.49-1.15c-.78-.21-1.11.99-.33 1.21ZM10.83 69.1c3.29 5.13 8.14 9.17 13.56 11.91.72.36 1.35-.72.63-1.08-5.23-2.64-9.93-6.5-13.11-11.46-.43-.67-1.52-.05-1.08.63Z" class="cls-4"/><path d="M51.04 84.87s-15.41 8.85-27.57 9.07c-12.16.22-18.97-.09-21.67 2.23-2.7 2.32 5.96 10.85 18.68 12.79 12.72 1.95 27.45-7.05 33.01-16.9 5.55-9.86-2.44-7.19-2.44-7.19Z" class="cls-7"/><path d="M50.4 83.79c-7.03 4.03-15.05 7.35-23.09 8.57-3.2.48-6.48.37-9.71.41-2.7.03-5.41.05-8.1.22-1.89.11-3.84.26-5.66.79-1.21.35-2.75.95-3.43 2.09-1.69 2.84 2.12 6.21 4.04 7.72 4.37 3.43 9.8 5.61 15.26 6.51 11.35 1.87 23.44-3.85 30.99-12.17 2.05-2.26 3.82-4.81 5.04-7.62.71-1.64 1.47-3.81.46-5.49-1.1-1.84-3.72-1.73-5.51-1.15-1.52.5-.87 2.92.66 2.41.13-.04.26-.08.39-.11.15-.03.3-.07.45-.1.35-.07.11-.03.34-.05.36-.03.93 0 .98 0 .26.05.27.06.33.1.2.11.2.16.2.15.1.19.16.56.11 1-.11 1.01-.57 2.02-1.01 2.92-1.07 2.2-2.46 4.22-4.09 6.04-6.8 7.59-17.88 13.23-28.26 11.73-5.02-.73-10.01-2.63-14.13-5.61-1.33-.96-2.7-2.12-3.59-3.52-.22-.35-.51-.97-.53-1.14-.04-.28 0-.3.02-.36-.06.21-.04.05 0 0-.18.2.17-.15.2-.18 2.23-1.64 6.21-1.48 8.9-1.57 5.47-.19 11.05.21 16.48-.65s10.81-2.8 15.89-5.03c2.59-1.14 5.16-2.36 7.62-3.77 1.4-.8.14-2.96-1.26-2.16Z" class="cls-4"/><path d="M37.88 99.41c2.06-.92 4.02-2.05 5.87-3.34.28-.19.4-.55.22-.86-.16-.27-.58-.42-.86-.22-1.85 1.3-3.81 2.42-5.87 3.34-.31.14-.38.59-.22.86.19.32.55.36.86.22ZM13.48 101.09c5.83 1.84 12.12 1.82 18.05.48.78-.18.45-1.38-.33-1.21-5.72 1.3-11.77 1.3-17.39-.48-.77-.24-1.1.96-.33 1.21Z" class="cls-4"/><path d="M44.34 79.03s23.06-21.69 59.57-17.84c36.51 3.84 39.53 37.61 47.49 61.49 7.96 23.88 12.9 66.7 3.29 71.37-9.61 4.67-95.25 3.3-118.58-18.94-29.37-18.94-38.7-60.94 8.24-96.07Z" class="cls-6"/><path d="M22.26 101.24c-6.37 22.7 4.17 43.72 22.63 55.62 21.53 20.51 96.1 23.27 115.05 19.91-.22 8.93-1.79 15.59-5.25 17.27-9.61 4.67-95.25 3.3-118.58-18.94-23.35-15.06-34.03-44.69-13.84-73.86Z" class="cls-1"/><path d="M118.42 82.6c7.25 5.13 12.31 15.62 14.91 23.88.53 1.69-2.12 2.41-2.65.73-2.33-7.44-7.1-17.62-13.64-22.24-1.43-1.01-.06-3.39 1.39-2.37ZM134.93 116.64c-1.77 0-1.77-2.74 0-2.74s1.77 2.74 0 2.74ZM30.22 155.74c4.71 4.09 8.86 8.78 14.16 12.15 5.53 3.51 12.15 4.99 18.45 6.44 1.73.39.99 3.04-.73 2.65-6.72-1.54-13.04-3.4-19.1-6.71-5.63-3.08-9.93-8.42-14.72-12.58-1.34-1.16.61-3.1 1.94-1.94ZM67.13 177.85c-1.77 0-1.77-2.74 0-2.74s1.77 2.74 0 2.74Z" class="cls-4"/><path d="M77.29 94.95c-3.54 0-3.54-5.49 0-5.49s3.54 5.49 0 5.49ZM82.77 112.52c-3.54 0-3.54-5.49 0-5.49s3.54 5.49 0 5.49ZM110.77 130.64c-3.54 0-3.54-5.49 0-5.49s3.54 5.49 0 5.49ZM86.07 161.93c-3.54 0-3.54-5.49 0-5.49s3.54 5.49 0 5.49ZM131.63 184.44c-3.54 0-3.54-5.49 0-5.49s3.54 5.49 0 5.49ZM132.73 157.54c-3.54 0-3.54-5.49 0-5.49s3.54 5.49 0 5.49ZM105.83 155.89c-3.54 0-3.54-5.49 0-5.49s3.54 5.49 0 5.49ZM103.09 103.19c-3.54 0-3.54-5.49 0-5.49s3.54 5.49 0 5.49ZM98.15 76.83c-3.54 0-3.54-5.49 0-5.49s3.54 5.49 0 5.49ZM90.46 88.64c-1.77 0-1.77-2.75 0-2.75s1.77 2.75 0 2.75ZM112.97 96.87c-1.77 0-1.77-2.74 0-2.74s1.77 2.74 0 2.74ZM99.24 120.48c-1.77 0-1.77-2.75 0-2.75s1.77 2.75 0 2.75ZM83.87 82.6c-1.77 0-1.77-2.75 0-2.75s1.77 2.75 0 2.75ZM87.17 106.76c-1.77 0-1.77-2.75 0-2.75s1.77 2.75 0 2.75ZM129.44 120.48c-1.77 0-1.77-2.75 0-2.75s1.77 2.75 0 2.75ZM138.22 134.75c-1.77 0-1.77-2.75 0-2.75s1.77 2.75 0 2.75ZM84.97 135.3c-1.77 0-1.77-2.74 0-2.74s1.77 2.74 0 2.74ZM115.16 161.11c-1.77 0-1.77-2.75 0-2.75s1.77 2.75 0 2.75ZM122.3 150.68c-1.77 0-1.77-2.75 0-2.75s1.77 2.75 0 2.75ZM150.3 158.91c-1.77 0-1.77-2.75 0-2.75s1.77 2.75 0 2.75ZM128.34 170.99c-1.77 0-1.77-2.75 0-2.75s1.77 2.75 0 2.75ZM110.22 173.18c-1.77 0-1.77-2.74 0-2.74s1.77 2.74 0 2.74ZM68.5 137.5c-1.77 0-1.77-2.74 0-2.74s1.77 2.74 0 2.74ZM57.52 115.54c-1.77 0-1.77-2.75 0-2.75s1.77 2.75 0 2.75ZM63.56 103.46c-1.77 0-1.77-2.74 0-2.74s1.77 2.74 0 2.74Z" class="cls-8"/><path d="M45.23 79.92c2.14-2.01 4.39-3.55 6.91-5.18 6.18-4 12.93-7.13 19.97-9.29 9.94-3.04 20.39-4.07 30.73-3.12 8.64.8 17.17 3.51 23.88 9.18 11.7 9.89 15.93 25.5 19.94 39.66 2.13 7.53 4.72 14.93 6.6 22.52 2.27 9.17 3.89 18.53 4.8 27.93.75 7.76 1.32 15.95-.13 23.67-.42 2.22-1.06 4.88-2.48 6.56-.24.28-.61.63-.75.74-.17.12-.35.21-.52.32-.29.18-.2.1-.16.08-.55.22-1.11.37-1.68.51-3.98.95-8.16 1.11-12.36 1.29-6.5.27-13.01.21-19.5-.03-15.75-.58-31.56-2.17-46.99-5.44-7.18-1.52-14.32-3.42-21.15-6.11-5.43-2.14-10.68-4.85-15.06-8.74-1.38-1.23-3.07-2.14-4.54-3.28s-2.95-2.41-4.34-3.72c-2.67-2.54-5.1-5.34-7.19-8.38-4.13-6.02-6.93-12.93-7.93-20.18-2.47-17.94 6.46-34.81 18.63-47.36 4.04-4.16 8.45-7.96 13.08-11.44 1.27-.95.03-3.13-1.26-2.16-15.99 12.01-30.51 28.51-33.01 49.09-1.88 15.51 4.25 30.81 15.33 41.64 1.43 1.39 2.93 2.71 4.49 3.95s3.18 2.23 4.72 3.41c2.29 1.74 4.37 3.57 6.87 5.04 5.89 3.46 12.41 5.83 18.95 7.74 15.62 4.56 31.99 6.68 48.19 7.85 7.47.54 14.96.83 22.45.81 5.48-.01 11-.15 16.45-.78 3.21-.37 7.12-.62 9.28-3.34 1.66-2.09 2.41-4.82 2.9-7.4.67-3.56.87-7.2.9-10.82.06-9.42-1.06-18.86-2.65-28.13-1.54-8.96-3.76-17.69-6.52-26.35-4.66-14.62-7.38-30.57-16.57-43.26-4.73-6.53-11.04-11.56-18.58-14.47-9.74-3.76-20.93-4.1-31.2-2.87-14.55 1.74-28.97 7.37-40.46 16.58-.61.49-1.22.98-1.79 1.52-1.18 1.1.59 2.87 1.77 1.77Z" class="cls-4"/><path d="M30.38 101.42c-5.11 7.98-8.46 16.89-8.51 26.45-.01 2.41 3.74 2.42 3.75 0 .05-8.93 3.23-17.11 7.99-24.55 1.31-2.04-1.94-3.92-3.24-1.89ZM25.25 138.24c2.41 0 2.42-3.75 0-3.75s-2.42 3.75 0 3.75Z" class="cls-9"/><g style="mix-blend-mode:multiply"><path d="M154.69 194.05c.27-.13.52-.3.77-.49.07-.05.14-.12.21-.17.18-.16.36-.33.53-.52.06-.07.12-.13.18-.2.21-.25.41-.53.6-.83.06-.09.11-.19.16-.28.13-.23.26-.47.38-.72.07-.14.14-.28.2-.43.11-.25.21-.51.31-.78.08-.21.16-.43.23-.65.1-.31.2-.62.29-.94.07-.24.13-.49.19-.74l.15-.63c.06-.29.13-.58.19-.88.02-.11.04-.23.06-.35.13-.7.24-1.43.34-2.2.01-.1.03-.19.04-.29.05-.43.1-.88.14-1.33 0-.06 0-.11.01-.17 1.44-15.65-2.67-41.91-8.28-58.75-7.96-23.88-10.98-57.65-47.49-61.49-2.52-.27-4.97-.4-7.36-.44-12.76 17.96-16.94 42.49-23.52 62.22-6 18-10.77 43.65-11.83 64.58 34.41 10.1 86.15 10.06 93.49 6.5Z" style="fill:#df2a4c;stroke-width:0"/></g><path d="m199.85 61.25 34.53-30.03 5.67 4.84-27.02 37.04-13.18-11.85z" class="cls-3"/><path d="M200.73 62.14c3.87-3.37 7.74-6.73 11.62-10.1l18.64-16.21c1.43-1.24 2.85-2.48 4.28-3.72h-1.77c1.89 1.61 3.78 3.23 5.67 4.84l-.2-1.51c-3.04 4.16-6.07 8.32-9.11 12.48-4.85 6.64-9.7 13.29-14.54 19.93-1.13 1.54-2.25 3.08-3.38 4.63l1.96-.25c-4.39-3.95-8.79-7.9-13.18-11.84-1.19-1.07-2.97.69-1.77 1.77 4.39 3.95 8.79 7.9 13.18 11.84.64.58 1.47.42 1.96-.25 3.04-4.16 6.07-8.32 9.11-12.48 4.85-6.64 9.7-13.29 14.54-19.93 1.13-1.54 2.25-3.08 3.38-4.63.3-.41.19-1.18-.2-1.51-1.89-1.61-3.78-3.23-5.67-4.84-.54-.46-1.22-.47-1.77 0-3.87 3.37-7.74 6.73-11.62 10.1l-18.64 16.21c-1.43 1.24-2.85 2.48-4.28 3.72-1.22 1.06.56 2.82 1.77 1.77Z" class="cls-4"/><path d="M205.86 62.76s-1.84-21.52 4.17-35.03c6.01-13.51 9.84-20.85 8.68-25.02-1.17-4.17-15.02 1-23.69 14.01-8.68 13.01-6.34 33.87 1.67 45.04 8.01 11.18 9.18 1 9.18 1Z" class="cls-7"/><path d="M207.11 62.76c-.78-9.26-.38-19.08 1.9-28.1 1.79-7.1 5.51-13.6 8.33-20.32.97-2.33 1.95-4.71 2.48-7.18.34-1.59.59-3.43.02-5-1.37-3.75-7.01-1.69-9.48-.6-5.77 2.55-10.77 7.03-14.59 11.99-8.41 10.89-9.3 26-5.1 38.79.96 2.92 2.2 5.77 3.82 8.39s3.56 5.49 6.23 6.92c3.26 1.74 5.59-.86 6.23-3.92.07-.32.11-.64.15-.96.19-1.59-2.31-1.58-2.5 0 .07-.59-.04.17-.08.38-.08.39-.3 1.09-.36 1.25-.24.56-.43.89-.82 1.21 0 0-.15.11-.39.15-.07 0-.33-.02-.57-.1-.96-.32-1.77-1.14-2.45-1.86-1.14-1.2-2.14-2.55-3.04-3.94-1.54-2.4-2.73-5-3.65-7.7-3.97-11.62-3.68-25.73 3.65-35.98 3.47-4.85 8.08-9.11 13.41-11.84 1.63-.83 3.46-1.62 5.3-1.78.61-.05 1.15-.02 1.55.13.16.06.18.09.31.24-.05-.05.02.03.08.32.31 1.38-.05 3.01-.44 4.42-.66 2.38-1.62 4.68-2.59 6.94-2.68 6.23-6.07 12.3-7.8 18.88-2.43 9.23-2.81 19.2-2.16 28.7.01.19.03.38.04.57.13 1.59 2.64 1.61 2.5 0Z" class="cls-4"/><path d="M196.72 40.73c-.04 2.8.2 5.59.7 8.35.14.79 1.35.46 1.21-.33-.47-2.65-.69-5.33-.65-8.02.01-.8-1.24-.81-1.25 0ZM207.41 13.1c-5 5.45-8.23 12.36-9.78 19.55-.17.78 1.04 1.12 1.21.33 1.5-6.99 4.6-13.71 9.46-19 .54-.59-.34-1.48-.88-.88Z" class="cls-4"/><path d="M201.16 65.13S186.01 49.74 182 35.5c-4-14.23-5.74-22.33-9.3-24.8-3.56-2.46-10.92 10.36-9.29 25.91 1.63 15.55 16.74 30.11 30.04 33.61 13.3 3.49 7.7-5.09 7.7-5.09Z" class="cls-7"/><path d="M202.05 64.25c-6.7-6.82-12.82-14.91-16.8-23.6-1.57-3.43-2.48-7.06-3.48-10.68-.93-3.39-1.84-6.8-2.9-10.16-.72-2.3-1.5-4.64-2.66-6.77-.73-1.35-1.76-2.88-3.18-3.58-3.87-1.91-7.01 4.51-8.1 7.1-2.77 6.54-3.58 14.09-2.62 21.1 1.83 13.38 12.39 25.35 24.21 31.23 2.87 1.43 5.92 2.53 9.09 3.09 2.01.36 4.54.72 6.38-.44 2.36-1.49 1.65-4.5.55-6.55a4.85 4.85 0 0 0-.29-.49c-.87-1.35-3.04-.09-2.16 1.26.09.14.17.28.25.43s.15.29.22.44c.16.32.12.24.17.39.08.23.16.45.22.69.05.2.12.61.11.51.01.15 0 .59.01.55-.01.09-.09.32-.15.4.04-.06-.21.22-.21.22-.26.17-.41.22-.73.3-.94.22-1.97.14-2.92.01-2.88-.37-5.73-1.31-8.36-2.52-11.18-5.19-21.17-15.94-23.67-28.23-1.31-6.45-.64-13.59 1.54-19.79.75-2.13 1.73-4.37 3.23-6.1.45-.52.93-.99 1.54-1.3.32-.16.44-.16.73.04 1.1.73 1.88 2.25 2.45 3.47 1 2.11 1.68 4.38 2.35 6.61 1.94 6.45 3.19 13.21 5.91 19.39 3.97 9.01 10.3 17.21 17.06 24.32.14.15.28.3.43.45 1.13 1.15 2.9-.62 1.77-1.77Z" class="cls-4"/><path d="M180.11 54.05a43.04 43.04 0 0 0 5.74 5.87c.26.22.63.25.88 0 .22-.22.26-.66 0-.88a43.04 43.04 0 0 1-5.74-5.87c-.21-.26-.66-.22-.88 0-.26.26-.21.62 0 .88ZM170.66 25.97c-.37 7.39 1.58 14.77 4.99 21.3.37.71 1.45.08 1.08-.63-3.3-6.34-5.17-13.49-4.82-20.67.04-.8-1.21-.8-1.25 0Z" class="cls-4"/><path d="M209.51 69.55s21.28-3.68 32.83-12.91c11.55-9.24 17.68-14.81 22.01-14.73 4.33.07 2.84 14.78-7.55 26.47s-31.15 14.72-44 9.8c-12.84-4.92-3.29-8.62-3.29-8.62Z" class="cls-7"/><path d="M209.84 70.75a96.069 96.069 0 0 0 22.97-7.06c2.66-1.2 5.25-2.56 7.68-4.18 2.97-1.98 5.68-4.37 8.45-6.61 2.47-1.99 4.93-4.01 7.49-5.87 1.68-1.22 3.44-2.48 5.36-3.29.6-.25 1.39-.5 1.95-.56.16-.02.79 0 .61-.03.24.05.23.05.32.17.22.3.47.86.58 1.48.15.84.14 1.72.08 2.57-.36 5.73-3.09 11.41-6.28 16.08-3.63 5.31-8.4 9.29-14.27 11.91-5.49 2.45-11.58 3.68-17.58 3.8s-11.76-.75-16.9-3.46c-.94-.5-2.05-1.1-2.68-1.99-.33-.47-.36-.72-.23-1.04.3-.7 1.18-1.28 2.07-1.74.14-.07.28-.14.42-.2.28-.13-.26.1-.06.02 1.48-.58.84-3-.66-2.41-2.08.82-4.66 2.56-4.29 5.12.35 2.35 2.91 3.8 4.83 4.74 2.9 1.41 5.99 2.35 9.17 2.87 12.42 2.05 26.75-.93 36.34-9.39 5.24-4.63 9.19-11.13 11.31-17.76.79-2.46 1.37-5.09 1.34-7.69-.02-1.62-.26-3.59-1.51-4.77s-3.07-.88-4.54-.4c-2.07.68-3.94 1.89-5.71 3.13-2.69 1.89-5.25 3.97-7.81 6.03-3.03 2.44-5.96 5.07-9.21 7.22-5.31 3.51-11.34 5.88-17.4 7.76-3.91 1.22-7.89 2.25-11.91 3.02-.2.04-.4.08-.61.11-1.58.27-.91 2.68.66 2.41Z" class="cls-4"/><path d="M232.81 71.6c-2.59.72-5.24 1.18-7.92 1.4-.8.06-.8 1.31 0 1.25a44.4 44.4 0 0 0 8.25-1.44c.77-.21.45-1.42-.33-1.21ZM256.07 54.82c-3.88 6.04-9.61 10.75-15.99 13.97-.72.36-.09 1.44.63 1.08 6.56-3.32 12.44-8.2 16.44-14.42.44-.68-.65-1.31-1.08-.63Z" class="cls-4"/><path d="M208.4 74.69s18.73 10.76 33.51 11.02c14.79.26 23.06-.11 26.34 2.71 3.29 2.82-7.25 13.19-22.71 15.55-15.46 2.36-33.37-8.56-40.12-20.54-6.75-11.98 2.97-8.74 2.97-8.74Z" class="cls-7"/><path d="M207.77 75.77c7.52 4.31 15.87 7.8 24.29 9.82 6.67 1.6 13.4 1.41 20.22 1.52 2.79.05 5.58.1 8.36.35 1.8.16 3.72.37 5.41 1.08.53.22 1.03.54 1.41.84.12.1.19.3.14.59-.22 1.45-1.54 2.79-2.56 3.78-4.07 3.97-9.62 6.52-15.04 8-6.5 1.77-12.99 1.59-19.42-.44s-12.09-5.4-16.93-9.8c-2.23-2.03-4.28-4.28-5.96-6.79-1.42-2.12-3.04-4.71-3.37-7.29-.08-.66-.05-1.1.23-1.51-.02.02.05-.06.26-.18.13-.07.16-.09.49-.16.66-.13 1.47-.03 2.26.17.17.04.33.09.5.14 1.53.51 2.19-1.91.66-2.41-1.78-.59-4.31-.82-5.8.55-1.34 1.24-1.28 3.17-.87 4.81.74 2.96 2.44 5.79 4.22 8.24 4.01 5.51 9.48 9.96 15.47 13.18 6.15 3.31 13.15 5.46 20.18 5.29s13.94-2.51 19.77-6.12c2.2-1.36 4.35-2.96 6.06-4.91 1.09-1.25 2.28-2.84 2.33-4.58.11-3.73-5.36-4.49-8.06-4.82-6.77-.83-13.67-.44-20.47-.65s-13.39-2.29-19.62-4.74c-4.21-1.66-8.34-3.57-12.3-5.75-.21-.11-.42-.23-.62-.35-1.4-.8-2.66 1.36-1.26 2.16Z" class="cls-4"/><path d="M225.08 91.17a42.62 42.62 0 0 1-7.13-4.07c-.28-.19-.69-.05-.86.22-.18.31-.05.66.22.86 2.24 1.58 4.63 2.94 7.13 4.07.31.14.67.09.86-.22.16-.27.09-.72-.22-.86ZM253.68 93.06c-6.85 2.16-14.23 2.16-21.21.58-.78-.18-1.12 1.03-.33 1.21 7.19 1.63 14.81 1.65 21.87-.58.76-.24.44-1.45-.33-1.21Z" class="cls-4"/><path d="M216.53 67.59s-28.03-26.36-72.4-21.69c-44.38 4.67-48.05 45.71-57.72 74.74-9.68 29.03-15.68 81.08-4 86.75 11.68 5.67 115.78 4.01 144.14-23.02 35.7-23.02 47.05-74.07-10.01-116.78Z" class="cls-6"/><path d="M243.37 94.59c7.75 27.59-5.06 53.14-27.5 67.61-26.17 24.93-116.81 28.28-139.85 24.2.27 10.86 2.17 18.95 6.38 20.99 11.68 5.67 115.78 4.01 144.14-23.02 28.38-18.3 41.37-54.32 16.83-89.78Z" class="cls-1"/><path d="M126.49 71.94c-8.81 6.23-14.97 18.98-18.12 29.02-.65 2.06 2.58 2.93 3.22.89 2.84-9.05 8.63-21.41 16.58-27.03 1.74-1.23.08-4.13-1.68-2.88ZM106.43 113.3c2.15 0 2.15-3.34 0-3.34s-2.15 3.34 0 3.34ZM233.7 160.84c-5.72 4.97-10.77 10.68-17.21 14.77-6.72 4.27-14.77 6.07-22.42 7.83-2.1.48-1.21 3.7.89 3.22 8.17-1.87 15.85-4.13 23.22-8.16 6.85-3.74 12.07-10.23 17.89-15.29 1.63-1.41-.74-3.76-2.36-2.36ZM188.84 187.71c2.15 0 2.15-3.34 0-3.34s-2.15 3.34 0 3.34Z" class="cls-4"/><path d="M176.49 86.94c4.3 0 4.3-6.67 0-6.67s-4.3 6.67 0 6.67ZM169.82 108.3c4.3 0 4.3-6.67 0-6.67s-4.3 6.67 0 6.67ZM135.79 130.32c4.3 0 4.3-6.67 0-6.67s-4.3 6.67 0 6.67ZM165.82 168.35c4.3 0 4.3-6.67 0-6.67s-4.3 6.67 0 6.67ZM110.43 195.71c4.3 0 4.3-6.67 0-6.67s-4.3 6.67 0 6.67ZM109.1 163.02c4.3 0 4.3-6.67 0-6.67s-4.3 6.67 0 6.67ZM141.79 161.02c4.3 0 4.3-6.67 0-6.67s-4.3 6.67 0 6.67ZM145.13 96.95c4.3 0 4.3-6.67 0-6.67s-4.3 6.67 0 6.67ZM151.14 64.92c4.3 0 4.3-6.67 0-6.67s-4.3 6.67 0 6.67ZM160.48 79.27c2.15 0 2.15-3.34 0-3.34s-2.15 3.34 0 3.34ZM133.12 89.28c2.15 0 2.15-3.34 0-3.34s-2.15 3.34 0 3.34ZM149.8 117.97c2.15 0 2.15-3.34 0-3.34s-2.15 3.34 0 3.34ZM168.49 71.93c2.15 0 2.15-3.34 0-3.34s-2.15 3.34 0 3.34ZM164.48 101.29c2.15 0 2.15-3.34 0-3.34s-2.15 3.34 0 3.34ZM113.1 117.97c2.15 0 2.15-3.34 0-3.34s-2.15 3.34 0 3.34ZM102.42 135.32c2.15 0 2.15-3.34 0-3.34s-2.15 3.34 0 3.34ZM167.15 135.99c2.15 0 2.15-3.34 0-3.34s-2.15 3.34 0 3.34ZM130.45 167.36c2.15 0 2.15-3.34 0-3.34s-2.15 3.34 0 3.34ZM121.78 154.68c2.15 0 2.15-3.34 0-3.34s-2.15 3.34 0 3.34ZM87.74 164.69c2.15 0 2.15-3.34 0-3.34s-2.15 3.34 0 3.34ZM114.43 179.37c2.15 0 2.15-3.34 0-3.34s-2.15 3.34 0 3.34ZM136.46 182.03c2.15 0 2.15-3.34 0-3.34s-2.15 3.34 0 3.34ZM187.17 138.66c2.15 0 2.15-3.34 0-3.34s-2.15 3.34 0 3.34ZM200.52 111.97c2.15 0 2.15-3.34 0-3.34s-2.15 3.34 0 3.34ZM193.18 97.29c2.15 0 2.15-3.34 0-3.34s-2.15 3.34 0 3.34Z" class="cls-8"/><path d="M217.42 66.71c-2.75-2.58-5.95-4.78-9.11-6.82-7.73-4.98-16.2-8.86-24.99-11.53-12.37-3.76-25.46-5.03-38.33-3.79-10.86 1.05-21.37 4.44-29.91 11.41-7.26 5.92-12.46 13.94-16.28 22.42-3.93 8.73-6.58 17.95-9.18 27.15-2.66 9.4-5.89 18.65-8.22 28.14-2.82 11.49-4.8 23.21-5.9 34.99-.9 9.64-1.51 19.78.43 29.34.61 3.03 1.55 6.22 3.58 8.63 1.25 1.48 2.9 2.22 4.74 2.69 5 1.26 10.34 1.49 15.47 1.72 8.09.37 16.21.29 24.3 0 9.68-.36 19.35-1.07 28.98-2.15 10-1.12 19.96-2.63 29.8-4.76 8.87-1.92 17.7-4.31 26.1-7.76 3.64-1.5 7.22-3.18 10.6-5.2 1.51-.9 2.97-1.87 4.38-2.93s2.59-2.31 4.01-3.25c7.8-5.16 14.64-11.78 19.8-19.6s8.35-16.43 9.48-25.55c1.22-9.83-.25-19.89-3.77-29.12-4.32-11.31-11.45-21.34-19.86-29.99-5.04-5.19-10.57-9.88-16.35-14.23-1.29-.97-2.53 1.2-1.26 2.16 10.84 8.14 20.85 17.75 28.18 29.23 5.58 8.73 9.58 18.6 10.67 28.96.96 9.08-.31 18.25-3.69 26.73s-8.61 15.7-15.07 21.81c-1.67 1.58-3.43 3.09-5.25 4.49s-3.84 2.46-5.48 3.96c-2.43 2.24-5.18 4.1-8.04 5.74-7.08 4.06-14.87 6.8-22.69 9.03-9.12 2.6-18.45 4.47-27.83 5.92s-19.41 2.55-29.17 3.25c-8.79.63-17.6.98-26.42.98-6.66 0-13.35-.15-19.98-.86-2.03-.22-3.96-.46-6.04-.96-.68-.16-1.35-.35-2-.62.36.15-.04-.02-.16-.08-.23-.13-.46-.26-.68-.42-.19-.14-.74-.67-1.03-1.02-1.75-2.16-2.53-5.44-3.04-8.23-.78-4.27-.95-8.64-.95-12.97 0-11.16 1.33-22.33 3.24-33.31 1.85-10.63 4.49-21 7.78-31.27 2.78-8.7 4.96-17.59 7.77-26.28 2.81-8.71 6.25-17.34 11.51-24.88s12.81-13.83 21.65-17.22c11.64-4.46 24.9-4.83 37.15-3.35 10.69 1.29 21.19 4.45 30.86 9.18 5.75 2.82 11.58 6.36 16.41 10.24.7.56 1.4 1.13 2.05 1.75 1.17 1.1 2.94-.66 1.77-1.77Z" class="cls-4"/><path d="M230.73 99.88c4.08 3.27 7.44 7.33 9.38 12.23s2.54 10.12 2.55 15.34c0 3.22 5.01 3.22 5 0-.02-5.75-.7-11.62-2.86-16.99s-5.85-10.35-10.54-14.11c-1.05-.84-2.51-1.03-3.54 0-.87.87-1.06 2.69 0 3.54ZM244.33 136.78c3.22 0 3.22-5 0-5s-3.22 5 0 5Z" class="cls-9"/></g></g></g></svg>